<?xml version="1.0" encoding="UTF-8" standalone="no"?>
<svg
   xmlns:dc="http://purl.org/dc/elements/1.1/"
   xmlns:cc="http://creativecommons.org/ns#"
   xmlns:rdf="http://www.w3.org/1999/02/22-rdf-syntax-ns#"
   xmlns:svg="http://www.w3.org/2000/svg"
   xmlns="http://www.w3.org/2000/svg"
   xmlns:sodipodi="http://sodipodi.sourceforge.net/DTD/sodipodi-0.dtd"
   xmlns:inkscape="http://www.inkscape.org/namespaces/inkscape"
   id="svg8"
   version="1.1"
   viewBox="0 0 150 150"
   height="150mm"
   width="150mm"
   sodipodi:docname="logo.svg"
   inkscape:version="0.92.3 (2405546, 2018-03-11)"
   inkscape:export-filename="D:\Documents\~Portfolio\morethanwires.github.io\res\img\logo.png"
   inkscape:export-xdpi="64"
   inkscape:export-ydpi="64">
  <sodipodi:namedview
     pagecolor="#ffffff"
     bordercolor="#666666"
     borderopacity="1"
     objecttolerance="10"
     gridtolerance="10"
     guidetolerance="10"
     inkscape:pageopacity="0"
     inkscape:pageshadow="2"
     inkscape:window-width="1920"
     inkscape:window-height="1057"
     id="namedview832"
     showgrid="false"
     inkscape:zoom="1.4190676"
     inkscape:cx="219.69522"
     inkscape:cy="281.32291"
     inkscape:window-x="1912"
     inkscape:window-y="-8"
     inkscape:window-maximized="1"
     inkscape:current-layer="svg8" />
  <defs
     id="defs2" />
  <metadata
     id="metadata5">
    <rdf:RDF>
      <cc:Work
         rdf:about="">
        <dc:format>image/svg+xml</dc:format>
        <dc:type
           rdf:resource="http://purl.org/dc/dcmitype/StillImage" />
        <dc:title></dc:title>
      </cc:Work>
    </rdf:RDF>
  </metadata>
  <g
     transform="rotate(-45,4.8436644,151.77465)"
     id="layer1">
    <g
       transform="translate(3.73956,-1.500855)"
       id="g842">
      <path
         style="fill:none;stroke:#eeeeee;stroke-width:8;stroke-linecap:round;stroke-linejoin:miter;stroke-miterlimit:4;stroke-dasharray:none;stroke-opacity:1"
         d="m 14.796533,148.59565 h 26.213884 l 7.066055,-6.85336 7.066054,6.85336 7.066055,6.85336 7.066054,-6.85336 7.066055,-6.85336 7.066055,6.85336 7.066054,6.85336 7.066055,-6.85336 7.066056,-6.85336 7.06605,6.85336 7.06606,6.85336 7.06605,-6.85336 7.06606,-6.85336 7.06605,6.85336 7.06606,6.85336 7.06605,-6.85336 7.06606,-6.85336 7.06605,6.85336 h 27.00407"
         id="path815"
         inkscape:connector-curvature="0" />
      <path
         style="opacity:1;fill:none;fill-opacity:1;stroke:#ffffff;stroke-width:10.9940424;stroke-linecap:round;stroke-linejoin:round;stroke-miterlimit:4;stroke-dasharray:none;stroke-dashoffset:0;stroke-opacity:1"
         d="m 63.573848,119.99787 a 28.502215,28.502215 0 0 0 -28.502137,28.50214 28.502215,28.502215 0 0 0 28.502137,28.50213 28.502215,28.502215 0 0 0 20.604945,-8.85785 h 41.613477 a 28.502215,28.502215 0 0 0 20.63388,8.85785 28.502215,28.502215 0 0 0 28.50214,-28.50213 28.502215,28.502215 0 0 0 -28.50214,-28.50214 28.502215,28.502215 0 0 0 -20.60494,8.85786 H 84.20773 a 28.502215,28.502215 0 0 0 -20.633882,-8.85786 z"
         id="path817"
         inkscape:connector-curvature="0" />
    </g>
    <g
       transform="translate(3.73956,-1.500855)"
       id="g866">
      <g
         id="g855">
        <path
           id="path828"
           d="m 84.178793,168.14429 0.02894,-39.28856"
           style="fill:none;stroke:#950000;stroke-width:10;stroke-linecap:butt;stroke-linejoin:miter;stroke-miterlimit:4;stroke-dasharray:none;stroke-opacity:1"
           inkscape:connector-curvature="0" />
        <path
           style="fill:none;stroke:#950000;stroke-width:10;stroke-linecap:butt;stroke-linejoin:miter;stroke-miterlimit:4;stroke-dasharray:none;stroke-opacity:1"
           d="m 104.98556,168.14429 0.0289,-39.28856"
           id="path834"
           inkscape:connector-curvature="0" />
        <path
           style="fill:none;stroke:#bdc900;stroke-width:10;stroke-linecap:butt;stroke-linejoin:miter;stroke-miterlimit:4;stroke-dasharray:none;stroke-opacity:1"
           d="M 146.93311,174.49197 V 122.50805"
           id="path836"
           inkscape:connector-curvature="0" />
        <path
           id="path838"
           d="m 125.79231,168.14429 0.0289,-39.28856"
           style="fill:none;stroke:#950000;stroke-width:10;stroke-linecap:butt;stroke-linejoin:miter;stroke-miterlimit:4;stroke-dasharray:none;stroke-opacity:1"
           inkscape:connector-curvature="0" />
        <path
           id="path826"
           d="M 64.614098,174.49197 V 122.50805"
           style="fill:none;stroke:#950000;stroke-width:10;stroke-linecap:butt;stroke-linejoin:miter;stroke-miterlimit:4;stroke-dasharray:none;stroke-opacity:1"
           inkscape:connector-curvature="0" />
      </g>
      <g
         id="g848">
        <path
           style="fill:none;stroke:#eeeeee;stroke-width:8;stroke-linecap:round;stroke-linejoin:miter;stroke-miterlimit:4;stroke-dasharray:none;stroke-opacity:1"
           d="m 14.796533,148.59565 h 26.213884 l 7.066055,-6.85336 7.066054,6.85336 7.066055,6.85336 7.066054,-6.85336 7.066055,-6.85336 7.066055,6.85336 7.066054,6.85336 7.066055,-6.85336 7.066056,-6.85336 7.06605,6.85336 7.06606,6.85336 7.06605,-6.85336 7.06606,-6.85336 7.06605,6.85336 7.06606,6.85336 7.06605,-6.85336 7.06606,-6.85336 7.06605,6.85336 h 27.00407"
           id="path844"
           inkscape:connector-curvature="0" />
        <path
           style="opacity:1;fill:none;fill-opacity:1;stroke:#ffffff;stroke-width:10.9940424;stroke-linecap:round;stroke-linejoin:round;stroke-miterlimit:4;stroke-dasharray:none;stroke-dashoffset:0;stroke-opacity:1"
           d="m 63.573848,119.99787 a 28.502215,28.502215 0 0 0 -28.502137,28.50214 28.502215,28.502215 0 0 0 28.502137,28.50213 28.502215,28.502215 0 0 0 20.604945,-8.85785 h 41.613477 a 28.502215,28.502215 0 0 0 20.63388,8.85785 28.502215,28.502215 0 0 0 28.50214,-28.50213 28.502215,28.502215 0 0 0 -28.50214,-28.50214 28.502215,28.502215 0 0 0 -20.60494,8.85786 H 84.20773 a 28.502215,28.502215 0 0 0 -20.633882,-8.85786 z"
           id="path846"
           inkscape:connector-curvature="0" />
      </g>
    </g>
  </g>
</svg>
